G75*
%MOIN*%
%OFA0B0*%
%FSLAX25Y25*%
%IPPOS*%
%LPD*%
%AMOC8*
5,1,8,0,0,1.08239X$1,22.5*
%
%ADD10C,0.13800*%
%ADD11C,0.03300*%
%ADD12R,0.04737X0.05131*%
%ADD13R,0.08674X0.05524*%
%ADD14R,0.06115X0.03162*%
%ADD15C,0.08200*%
%ADD16R,0.05131X0.04737*%
%ADD17C,0.01421*%
%ADD18R,0.03950X0.02178*%
%ADD19R,0.02178X0.03950*%
%ADD20C,0.04737*%
%ADD21C,0.05000*%
%ADD22C,0.06706*%
D10*
X0038750Y0038750D03*
X0118750Y0038750D03*
X0140750Y0038750D03*
X0220750Y0038750D03*
X0242750Y0038750D03*
X0322750Y0038750D03*
X0322750Y0140750D03*
X0242750Y0140750D03*
X0220750Y0140750D03*
X0140750Y0140750D03*
X0118750Y0140750D03*
X0038750Y0140750D03*
X0038750Y0242750D03*
X0118750Y0242750D03*
X0140750Y0242750D03*
X0220750Y0242750D03*
X0242750Y0242750D03*
X0322750Y0242750D03*
D11*
X0329250Y0236250D03*
X0235750Y0227750D03*
X0227250Y0236250D03*
X0133750Y0227750D03*
X0125250Y0236250D03*
X0031750Y0227750D03*
X0125250Y0134250D03*
X0133750Y0125750D03*
X0227250Y0134250D03*
X0235750Y0125750D03*
X0329250Y0134250D03*
X0329250Y0032250D03*
X0227250Y0032250D03*
X0125250Y0032250D03*
X0031750Y0125750D03*
X0031750Y0329750D03*
X0133750Y0329750D03*
X0235750Y0329750D03*
D12*
X0210750Y0306096D03*
X0210750Y0299404D03*
X0200750Y0301096D03*
X0200750Y0294404D03*
X0195750Y0286096D03*
X0195750Y0279404D03*
X0190750Y0294404D03*
X0190750Y0301096D03*
X0180750Y0301096D03*
X0180750Y0294404D03*
X0170750Y0294404D03*
X0170750Y0301096D03*
X0165750Y0286096D03*
X0165750Y0279404D03*
X0108750Y0299404D03*
X0108750Y0306096D03*
X0098750Y0301096D03*
X0098750Y0294404D03*
X0093750Y0286096D03*
X0093750Y0279404D03*
X0088750Y0294404D03*
X0088750Y0301096D03*
X0078750Y0301096D03*
X0078750Y0294404D03*
X0068750Y0294404D03*
X0068750Y0301096D03*
X0063750Y0286096D03*
X0063750Y0279404D03*
X0108750Y0204096D03*
X0108750Y0197404D03*
X0098750Y0199096D03*
X0098750Y0192404D03*
X0093750Y0184096D03*
X0093750Y0177404D03*
X0088750Y0192404D03*
X0088750Y0199096D03*
X0078750Y0199096D03*
X0078750Y0192404D03*
X0068750Y0192404D03*
X0068750Y0199096D03*
X0063750Y0184096D03*
X0063750Y0177404D03*
X0108750Y0102096D03*
X0108750Y0095404D03*
X0098750Y0097096D03*
X0098750Y0090404D03*
X0093750Y0082096D03*
X0093750Y0075404D03*
X0088750Y0090404D03*
X0088750Y0097096D03*
X0078750Y0097096D03*
X0078750Y0090404D03*
X0068750Y0090404D03*
X0068750Y0097096D03*
X0063750Y0082096D03*
X0063750Y0075404D03*
X0165750Y0075404D03*
X0165750Y0082096D03*
X0170750Y0090404D03*
X0170750Y0097096D03*
X0180750Y0097096D03*
X0180750Y0090404D03*
X0190750Y0090404D03*
X0190750Y0097096D03*
X0200750Y0097096D03*
X0200750Y0090404D03*
X0195750Y0082096D03*
X0195750Y0075404D03*
X0210750Y0095404D03*
X0210750Y0102096D03*
X0267750Y0082096D03*
X0267750Y0075404D03*
X0272750Y0090404D03*
X0272750Y0097096D03*
X0282750Y0097096D03*
X0282750Y0090404D03*
X0292750Y0090404D03*
X0292750Y0097096D03*
X0302750Y0097096D03*
X0302750Y0090404D03*
X0297750Y0082096D03*
X0297750Y0075404D03*
X0312750Y0095404D03*
X0312750Y0102096D03*
X0297750Y0177404D03*
X0297750Y0184096D03*
X0292750Y0192404D03*
X0292750Y0199096D03*
X0302750Y0199096D03*
X0302750Y0192404D03*
X0312750Y0197404D03*
X0312750Y0204096D03*
X0282750Y0199096D03*
X0282750Y0192404D03*
X0272750Y0192404D03*
X0272750Y0199096D03*
X0267750Y0184096D03*
X0267750Y0177404D03*
X0210750Y0197404D03*
X0210750Y0204096D03*
X0200750Y0199096D03*
X0200750Y0192404D03*
X0195750Y0184096D03*
X0195750Y0177404D03*
X0190750Y0192404D03*
X0190750Y0199096D03*
X0180750Y0199096D03*
X0180750Y0192404D03*
X0170750Y0192404D03*
X0170750Y0199096D03*
X0165750Y0184096D03*
X0165750Y0177404D03*
X0267750Y0279404D03*
X0267750Y0286096D03*
X0272750Y0294404D03*
X0272750Y0301096D03*
X0282750Y0301096D03*
X0282750Y0294404D03*
X0292750Y0294404D03*
X0292750Y0301096D03*
X0302750Y0301096D03*
X0302750Y0294404D03*
X0297750Y0286096D03*
X0297750Y0279404D03*
X0312750Y0299404D03*
X0312750Y0306096D03*
D13*
X0327219Y0293774D03*
X0327219Y0271726D03*
X0327219Y0191774D03*
X0327219Y0169726D03*
X0327219Y0089774D03*
X0327219Y0067726D03*
X0238281Y0067726D03*
X0225219Y0067726D03*
X0225219Y0089774D03*
X0238281Y0089774D03*
X0238281Y0169726D03*
X0225219Y0169726D03*
X0225219Y0191774D03*
X0238281Y0191774D03*
X0238281Y0271726D03*
X0225219Y0271726D03*
X0225219Y0293774D03*
X0238281Y0293774D03*
X0136281Y0293774D03*
X0123219Y0293774D03*
X0123219Y0271726D03*
X0136281Y0271726D03*
X0136281Y0191774D03*
X0123219Y0191774D03*
X0123219Y0169726D03*
X0136281Y0169726D03*
X0136281Y0089774D03*
X0123219Y0089774D03*
X0123219Y0067726D03*
X0136281Y0067726D03*
X0034281Y0067726D03*
X0034281Y0089774D03*
X0034281Y0169726D03*
X0034281Y0191774D03*
X0034281Y0271726D03*
X0034281Y0293774D03*
D14*
X0048750Y0288656D03*
X0048750Y0284719D03*
X0048750Y0280781D03*
X0048750Y0276844D03*
X0108750Y0276844D03*
X0108750Y0280781D03*
X0108750Y0284719D03*
X0108750Y0288656D03*
X0150750Y0288656D03*
X0150750Y0284719D03*
X0150750Y0280781D03*
X0150750Y0276844D03*
X0210750Y0276844D03*
X0210750Y0280781D03*
X0210750Y0284719D03*
X0210750Y0288656D03*
X0252750Y0288656D03*
X0252750Y0284719D03*
X0252750Y0280781D03*
X0252750Y0276844D03*
X0312750Y0276844D03*
X0312750Y0280781D03*
X0312750Y0284719D03*
X0312750Y0288656D03*
X0312750Y0186656D03*
X0312750Y0182719D03*
X0312750Y0178781D03*
X0312750Y0174844D03*
X0252750Y0174844D03*
X0252750Y0178781D03*
X0252750Y0182719D03*
X0252750Y0186656D03*
X0210750Y0186656D03*
X0210750Y0182719D03*
X0210750Y0178781D03*
X0210750Y0174844D03*
X0150750Y0174844D03*
X0150750Y0178781D03*
X0150750Y0182719D03*
X0150750Y0186656D03*
X0108750Y0186656D03*
X0108750Y0182719D03*
X0108750Y0178781D03*
X0108750Y0174844D03*
X0048750Y0174844D03*
X0048750Y0178781D03*
X0048750Y0182719D03*
X0048750Y0186656D03*
X0048750Y0084656D03*
X0048750Y0080719D03*
X0048750Y0076781D03*
X0048750Y0072844D03*
X0108750Y0072844D03*
X0108750Y0076781D03*
X0108750Y0080719D03*
X0108750Y0084656D03*
X0150750Y0084656D03*
X0150750Y0080719D03*
X0150750Y0076781D03*
X0150750Y0072844D03*
X0210750Y0072844D03*
X0210750Y0076781D03*
X0210750Y0080719D03*
X0210750Y0084656D03*
X0252750Y0084656D03*
X0252750Y0080719D03*
X0252750Y0076781D03*
X0252750Y0072844D03*
X0312750Y0072844D03*
X0312750Y0076781D03*
X0312750Y0080719D03*
X0312750Y0084656D03*
D15*
X0312750Y0123750D03*
X0302750Y0123750D03*
X0292750Y0123750D03*
X0282750Y0123750D03*
X0272750Y0123750D03*
X0262750Y0123750D03*
X0252750Y0123750D03*
X0262750Y0135750D03*
X0272750Y0135750D03*
X0282750Y0135750D03*
X0292750Y0135750D03*
X0302750Y0135750D03*
X0210750Y0123750D03*
X0200750Y0123750D03*
X0190750Y0123750D03*
X0180750Y0123750D03*
X0170750Y0123750D03*
X0160750Y0123750D03*
X0150750Y0123750D03*
X0160750Y0135750D03*
X0170750Y0135750D03*
X0180750Y0135750D03*
X0190750Y0135750D03*
X0200750Y0135750D03*
X0108750Y0123750D03*
X0098750Y0123750D03*
X0088750Y0123750D03*
X0078750Y0123750D03*
X0068750Y0123750D03*
X0058750Y0123750D03*
X0048750Y0123750D03*
X0058750Y0135750D03*
X0068750Y0135750D03*
X0078750Y0135750D03*
X0088750Y0135750D03*
X0098750Y0135750D03*
X0098750Y0225750D03*
X0088750Y0225750D03*
X0078750Y0225750D03*
X0068750Y0225750D03*
X0058750Y0225750D03*
X0048750Y0225750D03*
X0058750Y0237750D03*
X0068750Y0237750D03*
X0078750Y0237750D03*
X0088750Y0237750D03*
X0098750Y0237750D03*
X0108750Y0225750D03*
X0150750Y0225750D03*
X0160750Y0225750D03*
X0170750Y0225750D03*
X0180750Y0225750D03*
X0190750Y0225750D03*
X0200750Y0225750D03*
X0210750Y0225750D03*
X0200750Y0237750D03*
X0190750Y0237750D03*
X0180750Y0237750D03*
X0170750Y0237750D03*
X0160750Y0237750D03*
X0252750Y0225750D03*
X0262750Y0225750D03*
X0272750Y0225750D03*
X0282750Y0225750D03*
X0292750Y0225750D03*
X0302750Y0225750D03*
X0312750Y0225750D03*
X0302750Y0237750D03*
X0292750Y0237750D03*
X0282750Y0237750D03*
X0272750Y0237750D03*
X0262750Y0237750D03*
X0262750Y0327750D03*
X0272750Y0327750D03*
X0282750Y0327750D03*
X0292750Y0327750D03*
X0302750Y0327750D03*
X0312750Y0327750D03*
X0252750Y0327750D03*
X0210750Y0327750D03*
X0200750Y0327750D03*
X0190750Y0327750D03*
X0180750Y0327750D03*
X0170750Y0327750D03*
X0160750Y0327750D03*
X0150750Y0327750D03*
X0108750Y0327750D03*
X0098750Y0327750D03*
X0088750Y0327750D03*
X0078750Y0327750D03*
X0068750Y0327750D03*
X0058750Y0327750D03*
X0048750Y0327750D03*
X0058750Y0033750D03*
X0068750Y0033750D03*
X0078750Y0033750D03*
X0088750Y0033750D03*
X0098750Y0033750D03*
X0160750Y0033750D03*
X0170750Y0033750D03*
X0180750Y0033750D03*
X0190750Y0033750D03*
X0200750Y0033750D03*
X0262750Y0033750D03*
X0272750Y0033750D03*
X0282750Y0033750D03*
X0292750Y0033750D03*
X0302750Y0033750D03*
D16*
X0321904Y0096250D03*
X0328596Y0096250D03*
X0226596Y0096250D03*
X0219904Y0096250D03*
X0124596Y0096250D03*
X0117904Y0096250D03*
X0117904Y0198250D03*
X0124596Y0198250D03*
X0219904Y0198250D03*
X0226596Y0198250D03*
X0321904Y0198250D03*
X0328596Y0198250D03*
X0328596Y0300250D03*
X0321904Y0300250D03*
X0226596Y0300250D03*
X0219904Y0300250D03*
X0124596Y0300250D03*
X0117904Y0300250D03*
D17*
X0119455Y0303592D02*
X0119455Y0306908D01*
X0119455Y0303592D02*
X0116139Y0303592D01*
X0116139Y0306908D01*
X0119455Y0306908D01*
X0119455Y0305012D02*
X0116139Y0305012D01*
X0116139Y0306432D02*
X0119455Y0306432D01*
X0126361Y0306908D02*
X0126361Y0303592D01*
X0123045Y0303592D01*
X0123045Y0306908D01*
X0126361Y0306908D01*
X0126361Y0305012D02*
X0123045Y0305012D01*
X0123045Y0306432D02*
X0126361Y0306432D01*
X0221455Y0306908D02*
X0221455Y0303592D01*
X0218139Y0303592D01*
X0218139Y0306908D01*
X0221455Y0306908D01*
X0221455Y0305012D02*
X0218139Y0305012D01*
X0218139Y0306432D02*
X0221455Y0306432D01*
X0228361Y0306908D02*
X0228361Y0303592D01*
X0225045Y0303592D01*
X0225045Y0306908D01*
X0228361Y0306908D01*
X0228361Y0305012D02*
X0225045Y0305012D01*
X0225045Y0306432D02*
X0228361Y0306432D01*
X0323455Y0306908D02*
X0323455Y0303592D01*
X0320139Y0303592D01*
X0320139Y0306908D01*
X0323455Y0306908D01*
X0323455Y0305012D02*
X0320139Y0305012D01*
X0320139Y0306432D02*
X0323455Y0306432D01*
X0330361Y0306908D02*
X0330361Y0303592D01*
X0327045Y0303592D01*
X0327045Y0306908D01*
X0330361Y0306908D01*
X0330361Y0305012D02*
X0327045Y0305012D01*
X0327045Y0306432D02*
X0330361Y0306432D01*
X0330361Y0204908D02*
X0330361Y0201592D01*
X0327045Y0201592D01*
X0327045Y0204908D01*
X0330361Y0204908D01*
X0330361Y0203012D02*
X0327045Y0203012D01*
X0327045Y0204432D02*
X0330361Y0204432D01*
X0323455Y0204908D02*
X0323455Y0201592D01*
X0320139Y0201592D01*
X0320139Y0204908D01*
X0323455Y0204908D01*
X0323455Y0203012D02*
X0320139Y0203012D01*
X0320139Y0204432D02*
X0323455Y0204432D01*
X0228361Y0204908D02*
X0228361Y0201592D01*
X0225045Y0201592D01*
X0225045Y0204908D01*
X0228361Y0204908D01*
X0228361Y0203012D02*
X0225045Y0203012D01*
X0225045Y0204432D02*
X0228361Y0204432D01*
X0221455Y0204908D02*
X0221455Y0201592D01*
X0218139Y0201592D01*
X0218139Y0204908D01*
X0221455Y0204908D01*
X0221455Y0203012D02*
X0218139Y0203012D01*
X0218139Y0204432D02*
X0221455Y0204432D01*
X0126361Y0204908D02*
X0126361Y0201592D01*
X0123045Y0201592D01*
X0123045Y0204908D01*
X0126361Y0204908D01*
X0126361Y0203012D02*
X0123045Y0203012D01*
X0123045Y0204432D02*
X0126361Y0204432D01*
X0119455Y0204908D02*
X0119455Y0201592D01*
X0116139Y0201592D01*
X0116139Y0204908D01*
X0119455Y0204908D01*
X0119455Y0203012D02*
X0116139Y0203012D01*
X0116139Y0204432D02*
X0119455Y0204432D01*
X0119455Y0102908D02*
X0119455Y0099592D01*
X0116139Y0099592D01*
X0116139Y0102908D01*
X0119455Y0102908D01*
X0119455Y0101012D02*
X0116139Y0101012D01*
X0116139Y0102432D02*
X0119455Y0102432D01*
X0126361Y0102908D02*
X0126361Y0099592D01*
X0123045Y0099592D01*
X0123045Y0102908D01*
X0126361Y0102908D01*
X0126361Y0101012D02*
X0123045Y0101012D01*
X0123045Y0102432D02*
X0126361Y0102432D01*
X0221455Y0102908D02*
X0221455Y0099592D01*
X0218139Y0099592D01*
X0218139Y0102908D01*
X0221455Y0102908D01*
X0221455Y0101012D02*
X0218139Y0101012D01*
X0218139Y0102432D02*
X0221455Y0102432D01*
X0228361Y0102908D02*
X0228361Y0099592D01*
X0225045Y0099592D01*
X0225045Y0102908D01*
X0228361Y0102908D01*
X0228361Y0101012D02*
X0225045Y0101012D01*
X0225045Y0102432D02*
X0228361Y0102432D01*
X0323455Y0102908D02*
X0323455Y0099592D01*
X0320139Y0099592D01*
X0320139Y0102908D01*
X0323455Y0102908D01*
X0323455Y0101012D02*
X0320139Y0101012D01*
X0320139Y0102432D02*
X0323455Y0102432D01*
X0330361Y0102908D02*
X0330361Y0099592D01*
X0327045Y0099592D01*
X0327045Y0102908D01*
X0330361Y0102908D01*
X0330361Y0101012D02*
X0327045Y0101012D01*
X0327045Y0102432D02*
X0330361Y0102432D01*
D18*
X0286884Y0079931D03*
X0286884Y0077569D03*
X0278616Y0077569D03*
X0278616Y0079931D03*
X0184884Y0079931D03*
X0184884Y0077569D03*
X0176616Y0077569D03*
X0176616Y0079931D03*
X0082884Y0079931D03*
X0082884Y0077569D03*
X0074616Y0077569D03*
X0074616Y0079931D03*
X0074616Y0179569D03*
X0074616Y0181931D03*
X0082884Y0181931D03*
X0082884Y0179569D03*
X0176616Y0179569D03*
X0176616Y0181931D03*
X0184884Y0181931D03*
X0184884Y0179569D03*
X0278616Y0179569D03*
X0278616Y0181931D03*
X0286884Y0181931D03*
X0286884Y0179569D03*
X0286884Y0281569D03*
X0286884Y0283931D03*
X0278616Y0283931D03*
X0278616Y0281569D03*
X0184884Y0281569D03*
X0184884Y0283931D03*
X0176616Y0283931D03*
X0176616Y0281569D03*
X0082884Y0281569D03*
X0082884Y0283931D03*
X0074616Y0283931D03*
X0074616Y0281569D03*
D19*
X0076388Y0278616D03*
X0078750Y0278616D03*
X0081112Y0278616D03*
X0081112Y0286884D03*
X0078750Y0286884D03*
X0076388Y0286884D03*
X0178388Y0286884D03*
X0180750Y0286884D03*
X0183112Y0286884D03*
X0183112Y0278616D03*
X0180750Y0278616D03*
X0178388Y0278616D03*
X0178388Y0184884D03*
X0180750Y0184884D03*
X0183112Y0184884D03*
X0183112Y0176616D03*
X0180750Y0176616D03*
X0178388Y0176616D03*
X0081112Y0176616D03*
X0078750Y0176616D03*
X0076388Y0176616D03*
X0076388Y0184884D03*
X0078750Y0184884D03*
X0081112Y0184884D03*
X0081112Y0082884D03*
X0078750Y0082884D03*
X0076388Y0082884D03*
X0076388Y0074616D03*
X0078750Y0074616D03*
X0081112Y0074616D03*
X0178388Y0074616D03*
X0180750Y0074616D03*
X0183112Y0074616D03*
X0183112Y0082884D03*
X0180750Y0082884D03*
X0178388Y0082884D03*
X0280388Y0082884D03*
X0282750Y0082884D03*
X0285112Y0082884D03*
X0285112Y0074616D03*
X0282750Y0074616D03*
X0280388Y0074616D03*
X0280388Y0176616D03*
X0282750Y0176616D03*
X0285112Y0176616D03*
X0285112Y0184884D03*
X0282750Y0184884D03*
X0280388Y0184884D03*
X0280388Y0278616D03*
X0282750Y0278616D03*
X0285112Y0278616D03*
X0285112Y0286884D03*
X0282750Y0286884D03*
X0280388Y0286884D03*
D20*
X0305750Y0341000D03*
X0055750Y0341000D03*
D21*
X0052185Y0020500D02*
X0052187Y0020619D01*
X0052193Y0020738D01*
X0052203Y0020857D01*
X0052217Y0020975D01*
X0052235Y0021093D01*
X0052256Y0021210D01*
X0052282Y0021326D01*
X0052312Y0021442D01*
X0052345Y0021556D01*
X0052382Y0021669D01*
X0052423Y0021781D01*
X0052468Y0021892D01*
X0052516Y0022001D01*
X0052568Y0022108D01*
X0052624Y0022213D01*
X0052683Y0022317D01*
X0052745Y0022418D01*
X0052811Y0022518D01*
X0052880Y0022615D01*
X0052952Y0022709D01*
X0053028Y0022802D01*
X0053106Y0022891D01*
X0053187Y0022978D01*
X0053272Y0023063D01*
X0053359Y0023144D01*
X0053448Y0023222D01*
X0053541Y0023298D01*
X0053635Y0023370D01*
X0053732Y0023439D01*
X0053832Y0023505D01*
X0053933Y0023567D01*
X0054037Y0023626D01*
X0054142Y0023682D01*
X0054249Y0023734D01*
X0054358Y0023782D01*
X0054469Y0023827D01*
X0054581Y0023868D01*
X0054694Y0023905D01*
X0054808Y0023938D01*
X0054924Y0023968D01*
X0055040Y0023994D01*
X0055157Y0024015D01*
X0055275Y0024033D01*
X0055393Y0024047D01*
X0055512Y0024057D01*
X0055631Y0024063D01*
X0055750Y0024065D01*
X0055869Y0024063D01*
X0055988Y0024057D01*
X0056107Y0024047D01*
X0056225Y0024033D01*
X0056343Y0024015D01*
X0056460Y0023994D01*
X0056576Y0023968D01*
X0056692Y0023938D01*
X0056806Y0023905D01*
X0056919Y0023868D01*
X0057031Y0023827D01*
X0057142Y0023782D01*
X0057251Y0023734D01*
X0057358Y0023682D01*
X0057463Y0023626D01*
X0057567Y0023567D01*
X0057668Y0023505D01*
X0057768Y0023439D01*
X0057865Y0023370D01*
X0057959Y0023298D01*
X0058052Y0023222D01*
X0058141Y0023144D01*
X0058228Y0023063D01*
X0058313Y0022978D01*
X0058394Y0022891D01*
X0058472Y0022802D01*
X0058548Y0022709D01*
X0058620Y0022615D01*
X0058689Y0022518D01*
X0058755Y0022418D01*
X0058817Y0022317D01*
X0058876Y0022213D01*
X0058932Y0022108D01*
X0058984Y0022001D01*
X0059032Y0021892D01*
X0059077Y0021781D01*
X0059118Y0021669D01*
X0059155Y0021556D01*
X0059188Y0021442D01*
X0059218Y0021326D01*
X0059244Y0021210D01*
X0059265Y0021093D01*
X0059283Y0020975D01*
X0059297Y0020857D01*
X0059307Y0020738D01*
X0059313Y0020619D01*
X0059315Y0020500D01*
X0059313Y0020381D01*
X0059307Y0020262D01*
X0059297Y0020143D01*
X0059283Y0020025D01*
X0059265Y0019907D01*
X0059244Y0019790D01*
X0059218Y0019674D01*
X0059188Y0019558D01*
X0059155Y0019444D01*
X0059118Y0019331D01*
X0059077Y0019219D01*
X0059032Y0019108D01*
X0058984Y0018999D01*
X0058932Y0018892D01*
X0058876Y0018787D01*
X0058817Y0018683D01*
X0058755Y0018582D01*
X0058689Y0018482D01*
X0058620Y0018385D01*
X0058548Y0018291D01*
X0058472Y0018198D01*
X0058394Y0018109D01*
X0058313Y0018022D01*
X0058228Y0017937D01*
X0058141Y0017856D01*
X0058052Y0017778D01*
X0057959Y0017702D01*
X0057865Y0017630D01*
X0057768Y0017561D01*
X0057668Y0017495D01*
X0057567Y0017433D01*
X0057463Y0017374D01*
X0057358Y0017318D01*
X0057251Y0017266D01*
X0057142Y0017218D01*
X0057031Y0017173D01*
X0056919Y0017132D01*
X0056806Y0017095D01*
X0056692Y0017062D01*
X0056576Y0017032D01*
X0056460Y0017006D01*
X0056343Y0016985D01*
X0056225Y0016967D01*
X0056107Y0016953D01*
X0055988Y0016943D01*
X0055869Y0016937D01*
X0055750Y0016935D01*
X0055631Y0016937D01*
X0055512Y0016943D01*
X0055393Y0016953D01*
X0055275Y0016967D01*
X0055157Y0016985D01*
X0055040Y0017006D01*
X0054924Y0017032D01*
X0054808Y0017062D01*
X0054694Y0017095D01*
X0054581Y0017132D01*
X0054469Y0017173D01*
X0054358Y0017218D01*
X0054249Y0017266D01*
X0054142Y0017318D01*
X0054037Y0017374D01*
X0053933Y0017433D01*
X0053832Y0017495D01*
X0053732Y0017561D01*
X0053635Y0017630D01*
X0053541Y0017702D01*
X0053448Y0017778D01*
X0053359Y0017856D01*
X0053272Y0017937D01*
X0053187Y0018022D01*
X0053106Y0018109D01*
X0053028Y0018198D01*
X0052952Y0018291D01*
X0052880Y0018385D01*
X0052811Y0018482D01*
X0052745Y0018582D01*
X0052683Y0018683D01*
X0052624Y0018787D01*
X0052568Y0018892D01*
X0052516Y0018999D01*
X0052468Y0019108D01*
X0052423Y0019219D01*
X0052382Y0019331D01*
X0052345Y0019444D01*
X0052312Y0019558D01*
X0052282Y0019674D01*
X0052256Y0019790D01*
X0052235Y0019907D01*
X0052217Y0020025D01*
X0052203Y0020143D01*
X0052193Y0020262D01*
X0052187Y0020381D01*
X0052185Y0020500D01*
D22*
X0055750Y0020500D03*
M02*
