%
M48
M72
T01C0.0120
T02C0.0400
T03C0.1300
%
T01
X7375Y5375
X8875Y5375
X10375Y7225
X9875Y8375
X9475Y8625
X8875Y8575
X8375Y9875
X8875Y10175
X10875Y8825
X11325Y9625
X11875Y11225
X15772Y7678
X16575Y8675
X17075Y8575
X17075Y7775
X17375Y7425
X17075Y6875
X17575Y5375
X19075Y5375
X20575Y7225
X20075Y8375
X19675Y8625
X19075Y8575
X18575Y9875
X19075Y10175
X21075Y8825
X21525Y9625
X22075Y11225
X25972Y7678
X26775Y8675
X27275Y8575
X27275Y7775
X27575Y7425
X27275Y6875
X27775Y5375
X29275Y5375
X30775Y7225
X30275Y8375
X29875Y8625
X29275Y8575
X28775Y9875
X29275Y10175
X31275Y8825
X31725Y9625
X32275Y11225
X29275Y15575
X27775Y15575
X27275Y17075
X27575Y17625
X27275Y17975
X27275Y18775
X26775Y18875
X25972Y17878
X28775Y20075
X29275Y20375
X29275Y18775
X29875Y18825
X30275Y18575
X31275Y19025
X31725Y19825
X32275Y21425
X30775Y17425
X22075Y21425
X21525Y19825
X21075Y19025
X20075Y18575
X19675Y18825
X19075Y18775
X18575Y20075
X19075Y20375
X17075Y18775
X16575Y18875
X17075Y17975
X17375Y17625
X17075Y17075
X15772Y17878
X17575Y15575
X19075Y15575
X20575Y17425
X11875Y21425
X11325Y19825
X10875Y19025
X9875Y18575
X9475Y18825
X8875Y18775
X10375Y17425
X8875Y15575
X7375Y15575
X6875Y17075
X7175Y17625
X6875Y17975
X6875Y18775
X6375Y18875
X5572Y17878
X8375Y20075
X8875Y20375
X8875Y25775
X7375Y25775
X6875Y27275
X7175Y27825
X6875Y28175
X6875Y28975
X6375Y29075
X5572Y28078
X8375Y30275
X8875Y30575
X8875Y28975
X9475Y29025
X9875Y28775
X10875Y29225
X11325Y30025
X11875Y31625
X15772Y28078
X16575Y29075
X17075Y28975
X17075Y28175
X17375Y27825
X17075Y27275
X17575Y25775
X19075Y25775
X20575Y27625
X20075Y28775
X19675Y29025
X19075Y28975
X18575Y30275
X19075Y30575
X21075Y29225
X21525Y30025
X22075Y31625
X25972Y28078
X26775Y29075
X27275Y28975
X27275Y28175
X27575Y27825
X27275Y27275
X27775Y25775
X29275Y25775
X30775Y27625
X30275Y28775
X29875Y29025
X29275Y28975
X28775Y30275
X29275Y30575
X31275Y29225
X31725Y30025
X32275Y31625
X10375Y27625
X6375Y8675
X6875Y8575
X6875Y7775
X7175Y7425
X6875Y6875
X5572Y7678
T02
X5875Y3375
X6875Y3375
X7875Y3375
X8875Y3375
X9875Y3375
X16075Y3375
X17075Y3375
X18075Y3375
X19075Y3375
X20075Y3375
X26275Y3375
X27275Y3375
X28275Y3375
X29275Y3375
X30275Y3375
X30275Y12375
X29275Y12375
X28275Y12375
X27275Y12375
X26275Y12375
X25275Y12375
X26275Y13575
X27275Y13575
X28275Y13575
X29275Y13575
X30275Y13575
X31275Y12375
X21075Y12375
X20075Y12375
X19075Y12375
X18075Y12375
X17075Y12375
X16075Y12375
X15075Y12375
X16075Y13575
X17075Y13575
X18075Y13575
X19075Y13575
X20075Y13575
X10875Y12375
X9875Y12375
X8875Y12375
X7875Y12375
X6875Y12375
X5875Y12375
X4875Y12375
X5875Y13575
X6875Y13575
X7875Y13575
X8875Y13575
X9875Y13575
X9875Y22575
X8875Y22575
X7875Y22575
X6875Y22575
X5875Y22575
X4875Y22575
X5875Y23775
X6875Y23775
X7875Y23775
X8875Y23775
X9875Y23775
X10875Y22575
X15075Y22575
X16075Y22575
X17075Y22575
X18075Y22575
X19075Y22575
X20075Y22575
X21075Y22575
X20075Y23775
X19075Y23775
X18075Y23775
X17075Y23775
X16075Y23775
X25275Y22575
X26275Y22575
X27275Y22575
X28275Y22575
X29275Y22575
X30275Y22575
X31275Y22575
X30275Y23775
X29275Y23775
X28275Y23775
X27275Y23775
X26275Y23775
X26275Y32775
X27275Y32775
X28275Y32775
X29275Y32775
X30275Y32775
X31275Y32775
X25275Y32775
X21075Y32775
X20075Y32775
X19075Y32775
X18075Y32775
X17075Y32775
X16075Y32775
X15075Y32775
X10875Y32775
X9875Y32775
X8875Y32775
X7875Y32775
X6875Y32775
X5875Y32775
X4875Y32775
T03
X3875Y3875
X11875Y3875
X14075Y3875
X22075Y3875
X24275Y3875
X32275Y3875
X32275Y14075
X24275Y14075
X22075Y14075
X14075Y14075
X11875Y14075
X3875Y14075
X3875Y24275
X11875Y24275
X14075Y24275
X22075Y24275
X24275Y24275
X32275Y24275
M30
